<svg xmlns="http://www.w3.org/2000/svg" xmlns:xlink="http://www.w3.org/1999/xlink" width="249" zoomAndPan="magnify" viewBox="0 0 186.75 53.25" height="71" preserveAspectRatio="xMidYMid meet" version="1.0"><defs><g/><clipPath id="130cde8080"><path d="M 1.171875 0 L 185.328125 0 L 185.328125 52.511719 L 1.171875 52.511719 Z M 1.171875 0 " clip-rule="nonzero"/></clipPath><clipPath id="959216f18d"><path d="M 54.105469 8.132812 L 84.425781 8.132812 L 84.425781 44.375 L 54.105469 44.375 Z M 54.105469 8.132812 " clip-rule="nonzero"/></clipPath></defs><g clip-path="url(#130cde8080)"><path fill="#ffffff" d="M 1.171875 0 L 185.328125 0 L 185.328125 52.511719 L 1.171875 52.511719 Z M 1.171875 0 " fill-opacity="1" fill-rule="nonzero"/><path fill="#ffffff" d="M 1.171875 0 L 185.328125 0 L 185.328125 52.511719 L 1.171875 52.511719 Z M 1.171875 0 " fill-opacity="1" fill-rule="nonzero"/></g><g clip-path="url(#959216f18d)"><path fill="#eb690a" d="M 62.355469 33.132812 C 62.195312 32.445312 62.574219 31.742188 63.234375 31.511719 L 65.339844 30.761719 L 64.960938 29.683594 C 64.082031 27.160156 65.394531 24.375 67.890625 23.488281 C 70.386719 22.597656 73.136719 23.925781 74.015625 26.449219 L 74.394531 27.527344 L 76.5 26.777344 C 77.160156 26.539062 77.886719 26.84375 78.191406 27.476562 L 83.058594 37.601562 L 84.378906 20.957031 C 84.453125 19.988281 83.800781 19.121094 82.867188 18.929688 L 79.875 18.339844 L 80.171875 16.804688 C 80.863281 13.203125 78.539062 9.703125 74.980469 8.992188 C 71.417969 8.292969 67.957031 10.640625 67.257812 14.246094 L 66.960938 15.78125 L 63.96875 15.191406 C 63.027344 15.003906 62.101562 15.558594 61.8125 16.484375 L 54.46875 39.953125 C 54.117188 41.074219 54.8125 42.253906 55.953125 42.484375 L 64.886719 44.257812 Z M 79.339844 21.128906 C 79.25 21.589844 78.808594 21.886719 78.355469 21.796875 C 77.902344 21.707031 77.605469 21.261719 77.695312 20.800781 C 77.785156 20.34375 78.222656 20.042969 78.679688 20.132812 C 79.125 20.226562 79.425781 20.671875 79.339844 21.128906 Z M 68.914062 14.578125 C 69.4375 11.902344 72.007812 10.148438 74.664062 10.671875 C 77.316406 11.191406 79.042969 13.800781 78.527344 16.484375 L 78.230469 18.019531 L 68.617188 16.113281 Z M 67.414062 17.902344 C 67.871094 17.992188 68.164062 18.4375 68.074219 18.898438 C 67.984375 19.355469 67.546875 19.65625 67.09375 19.5625 C 66.636719 19.472656 66.34375 19.027344 66.433594 18.570312 C 66.515625 18.109375 66.953125 17.8125 67.414062 17.902344 Z M 67.414062 17.902344 " fill-opacity="1" fill-rule="nonzero"/></g><path fill="#eb690a" d="M 72.859375 26.859375 C 72.207031 24.980469 70.160156 23.988281 68.296875 24.65625 C 66.4375 25.316406 65.457031 27.386719 66.117188 29.273438 L 66.492188 30.351562 L 73.238281 27.945312 Z M 72.859375 26.859375 " fill-opacity="1" fill-rule="nonzero"/><path fill="#eb690a" d="M 66.390625 31.929688 C 66.074219 32.039062 65.902344 32.394531 66.019531 32.722656 C 66.128906 33.042969 66.480469 33.214844 66.804688 33.097656 C 67.121094 32.984375 67.292969 32.632812 67.175781 32.304688 C 67.066406 31.984375 66.714844 31.8125 66.390625 31.929688 Z M 66.390625 31.929688 " fill-opacity="1" fill-rule="nonzero"/><path fill="#eb690a" d="M 74.703125 30.273438 C 75.019531 30.164062 75.191406 29.808594 75.074219 29.480469 C 74.964844 29.160156 74.613281 28.988281 74.292969 29.105469 C 73.96875 29.222656 73.804688 29.570312 73.921875 29.898438 C 74.035156 30.21875 74.386719 30.390625 74.703125 30.273438 Z M 74.703125 30.273438 " fill-opacity="1" fill-rule="nonzero"/><g fill="#eb690a" fill-opacity="1"><g transform="translate(88.694366, 38.702017)"><g><path d="M 0.25 -0.140625 L 2.15625 -0.140625 L 2.25 -9.75 C 1.988281 -9.75 1.710938 -9.75 1.421875 -9.75 C 1.128906 -9.75 0.8125 -9.75 0.46875 -9.75 L 0.46875 -10.015625 C 1.019531 -10.015625 1.515625 -10.015625 1.953125 -10.015625 C 2.398438 -10.023438 2.800781 -10.03125 3.15625 -10.03125 C 3.507812 -10.03125 3.820312 -10.03125 4.09375 -10.03125 C 4.363281 -10.03125 4.597656 -10.03125 4.796875 -10.03125 L 5.84375 -10.03125 C 6.007812 -10.03125 6.238281 -10.019531 6.53125 -10 C 6.832031 -9.976562 7.15625 -9.925781 7.5 -9.84375 C 7.84375 -9.769531 8.191406 -9.660156 8.546875 -9.515625 C 8.898438 -9.378906 9.21875 -9.191406 9.5 -8.953125 C 9.789062 -8.722656 10.023438 -8.429688 10.203125 -8.078125 C 10.390625 -7.734375 10.484375 -7.320312 10.484375 -6.84375 C 10.484375 -6.21875 10.367188 -5.695312 10.140625 -5.28125 C 9.910156 -4.875 9.570312 -4.550781 9.125 -4.3125 C 8.6875 -4.070312 8.140625 -3.898438 7.484375 -3.796875 C 6.828125 -3.703125 6.066406 -3.65625 5.203125 -3.65625 L 4.8125 -3.65625 L 4.75 -0.140625 L 6.578125 -0.140625 L 6.578125 0.109375 L 0.25 0.109375 Z M 7.953125 -6.859375 C 7.953125 -7.273438 7.914062 -7.628906 7.84375 -7.921875 C 7.769531 -8.222656 7.664062 -8.476562 7.53125 -8.6875 C 7.40625 -8.90625 7.25 -9.078125 7.0625 -9.203125 C 6.882812 -9.335938 6.679688 -9.441406 6.453125 -9.515625 C 6.222656 -9.597656 5.976562 -9.65625 5.71875 -9.6875 C 5.457031 -9.71875 5.1875 -9.738281 4.90625 -9.75 L 4.8125 -3.96875 C 5.207031 -4.019531 5.550781 -4.09375 5.84375 -4.1875 C 6.144531 -4.289062 6.40625 -4.414062 6.625 -4.5625 C 6.84375 -4.707031 7.023438 -4.863281 7.171875 -5.03125 C 7.328125 -5.195312 7.457031 -5.367188 7.5625 -5.546875 C 7.789062 -5.941406 7.921875 -6.378906 7.953125 -6.859375 Z M 7.953125 -6.859375 "/></g></g></g><g fill="#eb690a" fill-opacity="1"><g transform="translate(99.407921, 38.702017)"><g><path d="M 5.921875 0.28125 C 6.023438 0.269531 6.125 0.21875 6.21875 0.125 C 6.300781 0.0390625 6.382812 -0.0859375 6.46875 -0.265625 C 6.5625 -0.441406 6.632812 -0.695312 6.6875 -1.03125 L 6.953125 -1.015625 C 6.890625 -0.617188 6.800781 -0.3125 6.6875 -0.09375 C 6.570312 0.113281 6.457031 0.265625 6.34375 0.359375 C 6.207031 0.472656 6.066406 0.535156 5.921875 0.546875 C 5.804688 0.546875 5.660156 0.523438 5.484375 0.484375 C 5.304688 0.453125 5.128906 0.394531 4.953125 0.3125 C 4.773438 0.226562 4.609375 0.117188 4.453125 -0.015625 C 4.304688 -0.148438 4.207031 -0.328125 4.15625 -0.546875 C 3.957031 -0.210938 3.691406 0.0546875 3.359375 0.265625 C 3.035156 0.472656 2.664062 0.578125 2.25 0.578125 C 2.03125 0.578125 1.8125 0.550781 1.59375 0.5 C 1.382812 0.457031 1.191406 0.378906 1.015625 0.265625 C 0.835938 0.148438 0.691406 0.00390625 0.578125 -0.171875 C 0.460938 -0.347656 0.40625 -0.570312 0.40625 -0.84375 C 0.40625 -1.175781 0.46875 -1.460938 0.59375 -1.703125 C 0.726562 -1.953125 0.90625 -2.160156 1.125 -2.328125 C 1.351562 -2.492188 1.609375 -2.613281 1.890625 -2.6875 C 2.171875 -2.769531 2.460938 -2.8125 2.765625 -2.8125 C 2.960938 -2.8125 3.15625 -2.785156 3.34375 -2.734375 C 3.539062 -2.691406 3.742188 -2.613281 3.953125 -2.5 C 3.960938 -2.738281 3.984375 -2.976562 4.015625 -3.21875 C 4.046875 -3.46875 4.070312 -3.695312 4.09375 -3.90625 C 4.101562 -4.03125 4.113281 -4.128906 4.125 -4.203125 C 4.132812 -4.273438 4.140625 -4.335938 4.140625 -4.390625 C 4.140625 -4.441406 4.140625 -4.476562 4.140625 -4.5 C 4.148438 -4.519531 4.15625 -4.539062 4.15625 -4.5625 C 4.15625 -5 4.078125 -5.34375 3.921875 -5.59375 C 3.765625 -5.851562 3.550781 -5.984375 3.28125 -5.984375 C 3.164062 -5.972656 3.039062 -5.953125 2.90625 -5.921875 C 2.78125 -5.890625 2.664062 -5.84375 2.5625 -5.78125 C 2.457031 -5.726562 2.367188 -5.65625 2.296875 -5.5625 C 2.234375 -5.476562 2.203125 -5.375 2.203125 -5.25 C 2.203125 -5.125 2.238281 -5.019531 2.3125 -4.9375 C 2.394531 -4.863281 2.484375 -4.789062 2.578125 -4.71875 C 2.679688 -4.644531 2.773438 -4.5625 2.859375 -4.46875 C 2.941406 -4.375 2.984375 -4.242188 2.984375 -4.078125 C 2.984375 -3.898438 2.953125 -3.75 2.890625 -3.625 C 2.835938 -3.507812 2.765625 -3.414062 2.671875 -3.34375 C 2.585938 -3.28125 2.488281 -3.234375 2.375 -3.203125 C 2.257812 -3.171875 2.144531 -3.15625 2.03125 -3.15625 C 1.90625 -3.15625 1.785156 -3.175781 1.671875 -3.21875 C 1.554688 -3.257812 1.453125 -3.320312 1.359375 -3.40625 C 1.265625 -3.488281 1.1875 -3.597656 1.125 -3.734375 C 1.0625 -3.878906 1.03125 -4.046875 1.03125 -4.234375 C 1.03125 -4.503906 1.09375 -4.753906 1.21875 -4.984375 C 1.351562 -5.222656 1.523438 -5.429688 1.734375 -5.609375 C 1.953125 -5.796875 2.191406 -5.945312 2.453125 -6.0625 C 2.722656 -6.175781 3 -6.238281 3.28125 -6.25 C 3.53125 -6.25 3.804688 -6.195312 4.109375 -6.09375 C 4.421875 -5.988281 4.707031 -5.804688 4.96875 -5.546875 C 5.226562 -5.296875 5.445312 -4.957031 5.625 -4.53125 C 5.800781 -4.101562 5.890625 -3.570312 5.890625 -2.9375 C 5.890625 -2.632812 5.878906 -2.347656 5.859375 -2.078125 C 5.835938 -1.804688 5.816406 -1.550781 5.796875 -1.3125 C 5.773438 -1.082031 5.753906 -0.875 5.734375 -0.6875 C 5.710938 -0.5 5.703125 -0.332031 5.703125 -0.1875 C 5.703125 -0.0507812 5.710938 0.0546875 5.734375 0.140625 C 5.765625 0.222656 5.816406 0.269531 5.890625 0.28125 Z M 4.03125 -0.921875 C 4 -1.085938 3.976562 -1.257812 3.96875 -1.4375 C 3.957031 -1.613281 3.953125 -1.796875 3.953125 -1.984375 L 3.953125 -2.171875 C 3.816406 -2.273438 3.671875 -2.351562 3.515625 -2.40625 C 3.359375 -2.46875 3.21875 -2.5 3.09375 -2.5 C 2.789062 -2.5 2.5625 -2.375 2.40625 -2.125 C 2.25 -1.875 2.171875 -1.539062 2.171875 -1.125 C 2.171875 -0.957031 2.1875 -0.800781 2.21875 -0.65625 C 2.257812 -0.507812 2.3125 -0.378906 2.375 -0.265625 C 2.4375 -0.160156 2.515625 -0.078125 2.609375 -0.015625 C 2.703125 0.046875 2.804688 0.078125 2.921875 0.078125 C 3.035156 0.078125 3.144531 0.0507812 3.25 0 C 3.363281 -0.0625 3.46875 -0.140625 3.5625 -0.234375 C 3.65625 -0.328125 3.742188 -0.429688 3.828125 -0.546875 C 3.910156 -0.671875 3.976562 -0.796875 4.03125 -0.921875 Z M 4.03125 -0.921875 "/></g></g></g><g fill="#eb690a" fill-opacity="1"><g transform="translate(106.395022, 38.702017)"><g><path d="M 13 0.140625 L 9.171875 0.0625 L 9.171875 -0.203125 L 9.75 -0.1875 C 9.78125 -1.1875 9.800781 -2.015625 9.8125 -2.671875 C 9.832031 -3.328125 9.847656 -3.847656 9.859375 -4.234375 C 9.867188 -4.679688 9.875 -5.023438 9.875 -5.265625 C 9.875 -5.421875 9.859375 -5.539062 9.828125 -5.625 C 9.796875 -5.71875 9.753906 -5.785156 9.703125 -5.828125 C 9.648438 -5.878906 9.585938 -5.910156 9.515625 -5.921875 C 9.441406 -5.941406 9.375 -5.953125 9.3125 -5.953125 C 9.21875 -5.921875 9.097656 -5.859375 8.953125 -5.765625 C 8.804688 -5.679688 8.65625 -5.539062 8.5 -5.34375 C 8.351562 -5.144531 8.210938 -4.878906 8.078125 -4.546875 C 7.953125 -4.210938 7.851562 -3.785156 7.78125 -3.265625 C 7.789062 -3.222656 7.796875 -3.179688 7.796875 -3.140625 C 7.796875 -3.097656 7.796875 -3.035156 7.796875 -2.953125 C 7.804688 -2.878906 7.8125 -2.773438 7.8125 -2.640625 C 7.8125 -2.515625 7.8125 -2.34375 7.8125 -2.125 C 7.820312 -1.914062 7.828125 -1.648438 7.828125 -1.328125 C 7.828125 -1.015625 7.828125 -0.632812 7.828125 -0.1875 L 8.5625 -0.171875 L 8.5625 0.09375 L 5 0 L 5 -0.265625 L 5.625 -0.25 C 5.644531 -1.101562 5.664062 -1.816406 5.6875 -2.390625 C 5.707031 -2.960938 5.722656 -3.421875 5.734375 -3.765625 C 5.753906 -4.171875 5.769531 -4.488281 5.78125 -4.71875 C 5.769531 -5.050781 5.734375 -5.316406 5.671875 -5.515625 C 5.617188 -5.722656 5.546875 -5.84375 5.453125 -5.875 C 5.390625 -5.875 5.285156 -5.84375 5.140625 -5.78125 C 4.992188 -5.726562 4.835938 -5.628906 4.671875 -5.484375 C 4.503906 -5.335938 4.335938 -5.132812 4.171875 -4.875 C 4.015625 -4.613281 3.878906 -4.273438 3.765625 -3.859375 L 3.6875 -0.265625 L 4.453125 -0.265625 L 4.453125 0 L 0.296875 0 L 0.296875 -0.265625 L 1.453125 -0.265625 L 1.453125 -5.890625 L 0.03125 -5.890625 L 0.03125 -6.15625 L 3.828125 -6.15625 L 3.796875 -4.703125 C 3.910156 -4.960938 4.039062 -5.175781 4.1875 -5.34375 C 4.332031 -5.519531 4.476562 -5.660156 4.625 -5.765625 C 4.769531 -5.878906 4.914062 -5.960938 5.0625 -6.015625 C 5.21875 -6.078125 5.359375 -6.125 5.484375 -6.15625 L 5.515625 -6.15625 C 5.835938 -6.175781 6.117188 -6.125 6.359375 -6 C 6.609375 -5.875 6.816406 -5.707031 6.984375 -5.5 C 7.148438 -5.289062 7.285156 -5.054688 7.390625 -4.796875 C 7.503906 -4.535156 7.59375 -4.269531 7.65625 -4 C 7.726562 -4.269531 7.804688 -4.507812 7.890625 -4.71875 C 7.984375 -4.9375 8.078125 -5.125 8.171875 -5.28125 C 8.273438 -5.4375 8.375 -5.566406 8.46875 -5.671875 C 8.570312 -5.785156 8.675781 -5.878906 8.78125 -5.953125 C 9.007812 -6.128906 9.25 -6.234375 9.5 -6.265625 C 9.8125 -6.285156 10.085938 -6.25 10.328125 -6.15625 C 10.578125 -6.0625 10.789062 -5.929688 10.96875 -5.765625 C 11.15625 -5.609375 11.316406 -5.421875 11.453125 -5.203125 C 11.585938 -4.984375 11.695312 -4.757812 11.78125 -4.53125 C 11.875 -4.300781 11.941406 -4.078125 11.984375 -3.859375 C 12.023438 -3.640625 12.050781 -3.441406 12.0625 -3.265625 C 12.0625 -2.742188 12.0625 -2.222656 12.0625 -1.703125 C 12.070312 -1.191406 12.070312 -0.664062 12.0625 -0.125 L 13 -0.109375 Z M 13 0.140625 "/></g></g></g><g fill="#eb690a" fill-opacity="1"><g transform="translate(119.559437, 38.702017)"><g><path d="M 7.28125 -2.625 C 7.28125 -2.300781 7.222656 -1.992188 7.109375 -1.703125 C 6.992188 -1.421875 6.84375 -1.160156 6.65625 -0.921875 C 6.46875 -0.691406 6.253906 -0.484375 6.015625 -0.296875 C 5.773438 -0.109375 5.523438 0.046875 5.265625 0.171875 C 5.003906 0.296875 4.742188 0.390625 4.484375 0.453125 C 4.222656 0.523438 3.984375 0.5625 3.765625 0.5625 L 3.703125 0.5625 C 3.472656 0.550781 3.234375 0.507812 2.984375 0.4375 C 2.742188 0.375 2.503906 0.28125 2.265625 0.15625 C 2.023438 0.03125 1.796875 -0.125 1.578125 -0.3125 C 1.359375 -0.5 1.164062 -0.71875 1 -0.96875 C 0.832031 -1.21875 0.695312 -1.5 0.59375 -1.8125 C 0.5 -2.125 0.453125 -2.46875 0.453125 -2.84375 C 0.453125 -3.226562 0.507812 -3.582031 0.625 -3.90625 C 0.75 -4.226562 0.90625 -4.515625 1.09375 -4.765625 C 1.289062 -5.023438 1.507812 -5.242188 1.75 -5.421875 C 2 -5.609375 2.25 -5.765625 2.5 -5.890625 C 2.75 -6.015625 2.988281 -6.109375 3.21875 -6.171875 C 3.457031 -6.234375 3.660156 -6.265625 3.828125 -6.265625 L 3.890625 -6.265625 C 4.179688 -6.253906 4.46875 -6.203125 4.75 -6.109375 C 5.03125 -6.015625 5.296875 -5.882812 5.546875 -5.71875 C 5.796875 -5.5625 6.023438 -5.367188 6.234375 -5.140625 C 6.453125 -4.921875 6.632812 -4.675781 6.78125 -4.40625 C 6.9375 -4.144531 7.054688 -3.863281 7.140625 -3.5625 C 7.234375 -3.257812 7.28125 -2.945312 7.28125 -2.625 Z M 4.984375 -2.75 C 4.984375 -2.863281 4.984375 -3.023438 4.984375 -3.234375 C 4.984375 -3.441406 4.972656 -3.664062 4.953125 -3.90625 C 4.941406 -4.15625 4.914062 -4.398438 4.875 -4.640625 C 4.832031 -4.890625 4.765625 -5.113281 4.671875 -5.3125 C 4.585938 -5.519531 4.476562 -5.6875 4.34375 -5.8125 C 4.207031 -5.9375 4.035156 -6 3.828125 -6 C 3.441406 -6 3.132812 -5.734375 2.90625 -5.203125 C 2.675781 -4.671875 2.5625 -3.859375 2.5625 -2.765625 C 2.5625 -2.234375 2.582031 -1.769531 2.625 -1.375 C 2.675781 -0.988281 2.75 -0.671875 2.84375 -0.421875 C 2.9375 -0.179688 3.0625 -0.00390625 3.21875 0.109375 C 3.375 0.234375 3.554688 0.296875 3.765625 0.296875 L 3.828125 0.296875 C 4.035156 0.285156 4.207031 0.21875 4.34375 0.09375 C 4.476562 -0.0195312 4.585938 -0.195312 4.671875 -0.4375 C 4.765625 -0.6875 4.832031 -1 4.875 -1.375 C 4.925781 -1.757812 4.960938 -2.21875 4.984375 -2.75 Z M 4.984375 -2.75 "/></g></g></g><g fill="#eb690a" fill-opacity="1"><g transform="translate(127.277496, 38.702017)"><g><path d="M 3.453125 0.25 C 3.453125 0.875 3.359375 1.421875 3.171875 1.890625 C 2.992188 2.359375 2.753906 2.75 2.453125 3.0625 C 2.148438 3.375 1.804688 3.609375 1.421875 3.765625 C 1.035156 3.929688 0.628906 4.019531 0.203125 4.03125 C -0.078125 4.03125 -0.378906 3.992188 -0.703125 3.921875 C -1.035156 3.847656 -1.34375 3.734375 -1.625 3.578125 C -1.90625 3.421875 -2.132812 3.21875 -2.3125 2.96875 C -2.5 2.71875 -2.59375 2.414062 -2.59375 2.0625 C -2.59375 1.925781 -2.570312 1.789062 -2.53125 1.65625 C -2.5 1.53125 -2.445312 1.414062 -2.375 1.3125 C -2.300781 1.207031 -2.207031 1.117188 -2.09375 1.046875 C -1.976562 0.972656 -1.84375 0.921875 -1.6875 0.890625 C -1.425781 0.847656 -1.207031 0.867188 -1.03125 0.953125 C -0.863281 1.046875 -0.734375 1.164062 -0.640625 1.3125 C -0.554688 1.46875 -0.5 1.640625 -0.46875 1.828125 C -0.445312 2.023438 -0.453125 2.195312 -0.484375 2.34375 C -0.503906 2.445312 -0.519531 2.546875 -0.53125 2.640625 C -0.550781 2.742188 -0.5625 2.84375 -0.5625 2.9375 C -0.5625 3.039062 -0.550781 3.140625 -0.53125 3.234375 C -0.507812 3.328125 -0.46875 3.410156 -0.40625 3.484375 C -0.351562 3.566406 -0.273438 3.628906 -0.171875 3.671875 C -0.0664062 3.722656 0.0546875 3.753906 0.203125 3.765625 C 0.429688 3.765625 0.617188 3.6875 0.765625 3.53125 C 0.910156 3.375 1.023438 3.164062 1.109375 2.90625 C 1.191406 2.644531 1.25 2.34375 1.28125 2 C 1.3125 1.664062 1.328125 1.320312 1.328125 0.96875 L 1.328125 -5.375 L -0.015625 -5.375 L -0.015625 -5.625 L 3.453125 -5.671875 Z M 3.6875 -7.640625 C 3.6875 -7.460938 3.648438 -7.296875 3.578125 -7.140625 C 3.515625 -6.984375 3.425781 -6.847656 3.3125 -6.734375 C 3.195312 -6.617188 3.0625 -6.53125 2.90625 -6.46875 C 2.757812 -6.40625 2.597656 -6.375 2.421875 -6.375 C 2.242188 -6.375 2.078125 -6.40625 1.921875 -6.46875 C 1.765625 -6.53125 1.628906 -6.617188 1.515625 -6.734375 C 1.398438 -6.847656 1.304688 -6.984375 1.234375 -7.140625 C 1.171875 -7.296875 1.140625 -7.460938 1.140625 -7.640625 C 1.140625 -7.816406 1.171875 -7.984375 1.234375 -8.140625 C 1.304688 -8.296875 1.398438 -8.429688 1.515625 -8.546875 C 1.628906 -8.660156 1.765625 -8.75 1.921875 -8.8125 C 2.078125 -8.875 2.242188 -8.90625 2.421875 -8.90625 C 2.597656 -8.90625 2.757812 -8.875 2.90625 -8.8125 C 3.0625 -8.75 3.195312 -8.660156 3.3125 -8.546875 C 3.425781 -8.429688 3.515625 -8.296875 3.578125 -8.140625 C 3.648438 -7.984375 3.6875 -7.816406 3.6875 -7.640625 Z M 3.6875 -7.640625 "/></g></g></g><g fill="#eb690a" fill-opacity="1"><g transform="translate(131.799405, 38.702017)"><g><path d="M 5.921875 0.28125 C 6.023438 0.269531 6.125 0.21875 6.21875 0.125 C 6.300781 0.0390625 6.382812 -0.0859375 6.46875 -0.265625 C 6.5625 -0.441406 6.632812 -0.695312 6.6875 -1.03125 L 6.953125 -1.015625 C 6.890625 -0.617188 6.800781 -0.3125 6.6875 -0.09375 C 6.570312 0.113281 6.457031 0.265625 6.34375 0.359375 C 6.207031 0.472656 6.066406 0.535156 5.921875 0.546875 C 5.804688 0.546875 5.660156 0.523438 5.484375 0.484375 C 5.304688 0.453125 5.128906 0.394531 4.953125 0.3125 C 4.773438 0.226562 4.609375 0.117188 4.453125 -0.015625 C 4.304688 -0.148438 4.207031 -0.328125 4.15625 -0.546875 C 3.957031 -0.210938 3.691406 0.0546875 3.359375 0.265625 C 3.035156 0.472656 2.664062 0.578125 2.25 0.578125 C 2.03125 0.578125 1.8125 0.550781 1.59375 0.5 C 1.382812 0.457031 1.191406 0.378906 1.015625 0.265625 C 0.835938 0.148438 0.691406 0.00390625 0.578125 -0.171875 C 0.460938 -0.347656 0.40625 -0.570312 0.40625 -0.84375 C 0.40625 -1.175781 0.46875 -1.460938 0.59375 -1.703125 C 0.726562 -1.953125 0.90625 -2.160156 1.125 -2.328125 C 1.351562 -2.492188 1.609375 -2.613281 1.890625 -2.6875 C 2.171875 -2.769531 2.460938 -2.8125 2.765625 -2.8125 C 2.960938 -2.8125 3.15625 -2.785156 3.34375 -2.734375 C 3.539062 -2.691406 3.742188 -2.613281 3.953125 -2.5 C 3.960938 -2.738281 3.984375 -2.976562 4.015625 -3.21875 C 4.046875 -3.46875 4.070312 -3.695312 4.09375 -3.90625 C 4.101562 -4.03125 4.113281 -4.128906 4.125 -4.203125 C 4.132812 -4.273438 4.140625 -4.335938 4.140625 -4.390625 C 4.140625 -4.441406 4.140625 -4.476562 4.140625 -4.5 C 4.148438 -4.519531 4.15625 -4.539062 4.15625 -4.5625 C 4.15625 -5 4.078125 -5.34375 3.921875 -5.59375 C 3.765625 -5.851562 3.550781 -5.984375 3.28125 -5.984375 C 3.164062 -5.972656 3.039062 -5.953125 2.90625 -5.921875 C 2.78125 -5.890625 2.664062 -5.84375 2.5625 -5.78125 C 2.457031 -5.726562 2.367188 -5.65625 2.296875 -5.5625 C 2.234375 -5.476562 2.203125 -5.375 2.203125 -5.25 C 2.203125 -5.125 2.238281 -5.019531 2.3125 -4.9375 C 2.394531 -4.863281 2.484375 -4.789062 2.578125 -4.71875 C 2.679688 -4.644531 2.773438 -4.5625 2.859375 -4.46875 C 2.941406 -4.375 2.984375 -4.242188 2.984375 -4.078125 C 2.984375 -3.898438 2.953125 -3.75 2.890625 -3.625 C 2.835938 -3.507812 2.765625 -3.414062 2.671875 -3.34375 C 2.585938 -3.28125 2.488281 -3.234375 2.375 -3.203125 C 2.257812 -3.171875 2.144531 -3.15625 2.03125 -3.15625 C 1.90625 -3.15625 1.785156 -3.175781 1.671875 -3.21875 C 1.554688 -3.257812 1.453125 -3.320312 1.359375 -3.40625 C 1.265625 -3.488281 1.1875 -3.597656 1.125 -3.734375 C 1.0625 -3.878906 1.03125 -4.046875 1.03125 -4.234375 C 1.03125 -4.503906 1.09375 -4.753906 1.21875 -4.984375 C 1.351562 -5.222656 1.523438 -5.429688 1.734375 -5.609375 C 1.953125 -5.796875 2.191406 -5.945312 2.453125 -6.0625 C 2.722656 -6.175781 3 -6.238281 3.28125 -6.25 C 3.53125 -6.25 3.804688 -6.195312 4.109375 -6.09375 C 4.421875 -5.988281 4.707031 -5.804688 4.96875 -5.546875 C 5.226562 -5.296875 5.445312 -4.957031 5.625 -4.53125 C 5.800781 -4.101562 5.890625 -3.570312 5.890625 -2.9375 C 5.890625 -2.632812 5.878906 -2.347656 5.859375 -2.078125 C 5.835938 -1.804688 5.816406 -1.550781 5.796875 -1.3125 C 5.773438 -1.082031 5.753906 -0.875 5.734375 -0.6875 C 5.710938 -0.5 5.703125 -0.332031 5.703125 -0.1875 C 5.703125 -0.0507812 5.710938 0.0546875 5.734375 0.140625 C 5.765625 0.222656 5.816406 0.269531 5.890625 0.28125 Z M 4.03125 -0.921875 C 4 -1.085938 3.976562 -1.257812 3.96875 -1.4375 C 3.957031 -1.613281 3.953125 -1.796875 3.953125 -1.984375 L 3.953125 -2.171875 C 3.816406 -2.273438 3.671875 -2.351562 3.515625 -2.40625 C 3.359375 -2.46875 3.21875 -2.5 3.09375 -2.5 C 2.789062 -2.5 2.5625 -2.375 2.40625 -2.125 C 2.25 -1.875 2.171875 -1.539062 2.171875 -1.125 C 2.171875 -0.957031 2.1875 -0.800781 2.21875 -0.65625 C 2.257812 -0.507812 2.3125 -0.378906 2.375 -0.265625 C 2.4375 -0.160156 2.515625 -0.078125 2.609375 -0.015625 C 2.703125 0.046875 2.804688 0.078125 2.921875 0.078125 C 3.035156 0.078125 3.144531 0.0507812 3.25 0 C 3.363281 -0.0625 3.46875 -0.140625 3.5625 -0.234375 C 3.65625 -0.328125 3.742188 -0.429688 3.828125 -0.546875 C 3.910156 -0.671875 3.976562 -0.796875 4.03125 -0.921875 Z M 4.03125 -0.921875 "/></g></g></g><g fill="#eb690a" fill-opacity="1"><g transform="translate(89.588821, 26.921714)"><g><path d="M 0.53125 -7.265625 L 2.78125 -7.265625 C 3.46875 -7.265625 4.007812 -7.117188 4.40625 -6.828125 C 4.8125 -6.535156 5.015625 -6.066406 5.015625 -5.421875 C 5.015625 -4.691406 4.710938 -4.171875 4.109375 -3.859375 C 5.148438 -3.679688 5.671875 -3.070312 5.671875 -2.03125 C 5.671875 -1.414062 5.457031 -0.921875 5.03125 -0.546875 C 4.601562 -0.179688 4.019531 0 3.28125 0 L 0.53125 0 Z M 2.1875 -4.421875 L 2.3125 -4.421875 C 2.6875 -4.421875 2.960938 -4.484375 3.140625 -4.609375 C 3.328125 -4.742188 3.421875 -4.957031 3.421875 -5.25 C 3.421875 -5.75 3.050781 -6 2.3125 -6 L 2.1875 -6 Z M 2.1875 -1.28125 L 2.703125 -1.28125 C 3.515625 -1.28125 3.921875 -1.550781 3.921875 -2.09375 C 3.921875 -2.414062 3.816406 -2.644531 3.609375 -2.78125 C 3.410156 -2.925781 3.109375 -3 2.703125 -3 L 2.1875 -3 Z M 2.1875 -1.28125 "/></g></g></g><g fill="#eb690a" fill-opacity="1"><g transform="translate(95.453248, 26.921714)"><g><path d="M 0.671875 -7.03125 C 0.859375 -7.21875 1.078125 -7.3125 1.328125 -7.3125 C 1.578125 -7.3125 1.789062 -7.21875 1.96875 -7.03125 C 2.15625 -6.851562 2.25 -6.640625 2.25 -6.390625 C 2.25 -6.140625 2.15625 -5.921875 1.96875 -5.734375 C 1.789062 -5.554688 1.578125 -5.46875 1.328125 -5.46875 C 1.078125 -5.46875 0.859375 -5.554688 0.671875 -5.734375 C 0.492188 -5.921875 0.40625 -6.140625 0.40625 -6.390625 C 0.40625 -6.640625 0.492188 -6.851562 0.671875 -7.03125 Z M 0.53125 -4.515625 L 0.53125 0 L 2.09375 0 L 2.09375 -4.515625 Z M 0.53125 -4.515625 "/></g></g></g><g fill="#eb690a" fill-opacity="1"><g transform="translate(98.112491, 26.921714)"><g><path d="M 0.828125 -0.5625 C 0.410156 -1.019531 0.203125 -1.582031 0.203125 -2.25 C 0.203125 -2.925781 0.410156 -3.492188 0.828125 -3.953125 C 1.253906 -4.421875 1.796875 -4.65625 2.453125 -4.65625 C 3.046875 -4.65625 3.539062 -4.46875 3.9375 -4.09375 L 3.9375 -4.515625 L 5.484375 -4.515625 L 5.484375 0 L 3.953125 0 L 3.953125 -0.515625 L 3.9375 -0.515625 C 3.539062 -0.0859375 3.046875 0.125 2.453125 0.125 C 1.796875 0.125 1.253906 -0.101562 0.828125 -0.5625 Z M 2.15625 -3.015625 C 1.957031 -2.816406 1.859375 -2.5625 1.859375 -2.25 C 1.859375 -1.9375 1.953125 -1.679688 2.140625 -1.484375 C 2.335938 -1.296875 2.597656 -1.203125 2.921875 -1.203125 C 3.222656 -1.203125 3.472656 -1.300781 3.671875 -1.5 C 3.867188 -1.695312 3.96875 -1.945312 3.96875 -2.25 C 3.96875 -2.5625 3.863281 -2.816406 3.65625 -3.015625 C 3.457031 -3.222656 3.210938 -3.328125 2.921875 -3.328125 C 2.617188 -3.328125 2.363281 -3.222656 2.15625 -3.015625 Z M 2.15625 -3.015625 "/></g></g></g><g fill="#eb690a" fill-opacity="1"><g transform="translate(104.126609, 26.921714)"><g><path d="M 2.5 -4.65625 C 2.75 -4.65625 3 -4.625 3.25 -4.5625 C 3.507812 -4.507812 3.703125 -4.453125 3.828125 -4.390625 L 4.015625 -4.296875 L 3.5 -3.28125 C 3.144531 -3.46875 2.8125 -3.5625 2.5 -3.5625 C 2.320312 -3.5625 2.195312 -3.539062 2.125 -3.5 C 2.050781 -3.46875 2.015625 -3.394531 2.015625 -3.28125 C 2.015625 -3.257812 2.015625 -3.238281 2.015625 -3.21875 C 2.023438 -3.195312 2.035156 -3.175781 2.046875 -3.15625 C 2.066406 -3.132812 2.082031 -3.113281 2.09375 -3.09375 C 2.113281 -3.082031 2.140625 -3.066406 2.171875 -3.046875 C 2.210938 -3.023438 2.242188 -3.007812 2.265625 -3 C 2.285156 -3 2.316406 -2.988281 2.359375 -2.96875 C 2.410156 -2.945312 2.445312 -2.929688 2.46875 -2.921875 C 2.488281 -2.921875 2.523438 -2.910156 2.578125 -2.890625 C 2.640625 -2.867188 2.6875 -2.859375 2.71875 -2.859375 C 2.894531 -2.804688 3.050781 -2.742188 3.1875 -2.671875 C 3.320312 -2.609375 3.460938 -2.519531 3.609375 -2.40625 C 3.765625 -2.300781 3.882812 -2.160156 3.96875 -1.984375 C 4.050781 -1.816406 4.09375 -1.625 4.09375 -1.40625 C 4.09375 -0.382812 3.378906 0.125 1.953125 0.125 C 1.628906 0.125 1.320312 0.078125 1.03125 -0.015625 C 0.738281 -0.117188 0.523438 -0.21875 0.390625 -0.3125 L 0.203125 -0.46875 L 0.84375 -1.546875 C 0.882812 -1.503906 0.941406 -1.453125 1.015625 -1.390625 C 1.097656 -1.335938 1.238281 -1.257812 1.4375 -1.15625 C 1.632812 -1.0625 1.804688 -1.015625 1.953125 -1.015625 C 2.273438 -1.015625 2.4375 -1.125 2.4375 -1.34375 C 2.4375 -1.445312 2.394531 -1.523438 2.3125 -1.578125 C 2.226562 -1.640625 2.085938 -1.703125 1.890625 -1.765625 C 1.703125 -1.835938 1.550781 -1.90625 1.4375 -1.96875 C 1.15625 -2.113281 0.929688 -2.273438 0.765625 -2.453125 C 0.597656 -2.640625 0.515625 -2.890625 0.515625 -3.203125 C 0.515625 -3.660156 0.691406 -4.015625 1.046875 -4.265625 C 1.410156 -4.523438 1.894531 -4.65625 2.5 -4.65625 Z M 2.5 -4.65625 "/></g></g></g><g fill="#eb690a" fill-opacity="1"><g transform="translate(108.458891, 26.921714)"><g><path d="M 0.53125 0 L 0.53125 -7.578125 L 2.09375 -7.578125 L 2.09375 -4.046875 L 2.109375 -4.046875 C 2.515625 -4.453125 2.945312 -4.65625 3.40625 -4.65625 C 3.625 -4.65625 3.84375 -4.625 4.0625 -4.5625 C 4.28125 -4.507812 4.488281 -4.421875 4.6875 -4.296875 C 4.894531 -4.171875 5.0625 -3.992188 5.1875 -3.765625 C 5.320312 -3.535156 5.390625 -3.273438 5.390625 -2.984375 L 5.390625 0 L 3.828125 0 L 3.828125 -2.5625 C 3.828125 -2.789062 3.75 -2.992188 3.59375 -3.171875 C 3.445312 -3.347656 3.253906 -3.4375 3.015625 -3.4375 C 2.773438 -3.4375 2.5625 -3.34375 2.375 -3.15625 C 2.1875 -2.976562 2.09375 -2.78125 2.09375 -2.5625 L 2.09375 0 Z M 0.53125 0 "/></g></g></g><g fill="#eb690a" fill-opacity="1"><g transform="translate(114.279291, 26.921714)"><g><path d="M 0.828125 -0.5625 C 0.410156 -1.019531 0.203125 -1.582031 0.203125 -2.25 C 0.203125 -2.925781 0.410156 -3.492188 0.828125 -3.953125 C 1.253906 -4.421875 1.796875 -4.65625 2.453125 -4.65625 C 3.046875 -4.65625 3.539062 -4.46875 3.9375 -4.09375 L 3.9375 -4.515625 L 5.484375 -4.515625 L 5.484375 0 L 3.953125 0 L 3.953125 -0.515625 L 3.9375 -0.515625 C 3.539062 -0.0859375 3.046875 0.125 2.453125 0.125 C 1.796875 0.125 1.253906 -0.101562 0.828125 -0.5625 Z M 2.15625 -3.015625 C 1.957031 -2.816406 1.859375 -2.5625 1.859375 -2.25 C 1.859375 -1.9375 1.953125 -1.679688 2.140625 -1.484375 C 2.335938 -1.296875 2.597656 -1.203125 2.921875 -1.203125 C 3.222656 -1.203125 3.472656 -1.300781 3.671875 -1.5 C 3.867188 -1.695312 3.96875 -1.945312 3.96875 -2.25 C 3.96875 -2.5625 3.863281 -2.816406 3.65625 -3.015625 C 3.457031 -3.222656 3.210938 -3.328125 2.921875 -3.328125 C 2.617188 -3.328125 2.363281 -3.222656 2.15625 -3.015625 Z M 2.15625 -3.015625 "/></g></g></g><g fill="#eb690a" fill-opacity="1"><g transform="translate(120.293409, 26.921714)"><g><path d="M 0.53125 0 L 0.53125 -4.515625 L 2.09375 -4.515625 L 2.09375 -3.875 L 2.109375 -3.875 C 2.117188 -3.894531 2.132812 -3.921875 2.15625 -3.953125 C 2.1875 -3.992188 2.242188 -4.054688 2.328125 -4.140625 C 2.421875 -4.234375 2.515625 -4.3125 2.609375 -4.375 C 2.710938 -4.445312 2.84375 -4.507812 3 -4.5625 C 3.164062 -4.625 3.328125 -4.65625 3.484375 -4.65625 C 3.660156 -4.65625 3.828125 -4.628906 3.984375 -4.578125 C 4.148438 -4.535156 4.273438 -4.488281 4.359375 -4.4375 L 4.484375 -4.375 L 3.828125 -3.046875 C 3.628906 -3.210938 3.359375 -3.296875 3.015625 -3.296875 C 2.828125 -3.296875 2.664062 -3.253906 2.53125 -3.171875 C 2.394531 -3.085938 2.296875 -2.988281 2.234375 -2.875 C 2.179688 -2.757812 2.144531 -2.660156 2.125 -2.578125 C 2.101562 -2.492188 2.09375 -2.425781 2.09375 -2.375 L 2.09375 0 Z M 0.53125 0 "/></g></g></g><g fill="#eb690a" fill-opacity="1"><g transform="translate(124.678521, 26.921714)"><g><path d="M 0.828125 -0.5625 C 0.410156 -1.019531 0.203125 -1.582031 0.203125 -2.25 C 0.203125 -2.925781 0.410156 -3.492188 0.828125 -3.953125 C 1.253906 -4.421875 1.796875 -4.65625 2.453125 -4.65625 C 3.046875 -4.65625 3.539062 -4.46875 3.9375 -4.09375 L 3.9375 -4.515625 L 5.484375 -4.515625 L 5.484375 0 L 3.953125 0 L 3.953125 -0.515625 L 3.9375 -0.515625 C 3.539062 -0.0859375 3.046875 0.125 2.453125 0.125 C 1.796875 0.125 1.253906 -0.101562 0.828125 -0.5625 Z M 2.15625 -3.015625 C 1.957031 -2.816406 1.859375 -2.5625 1.859375 -2.25 C 1.859375 -1.9375 1.953125 -1.679688 2.140625 -1.484375 C 2.335938 -1.296875 2.597656 -1.203125 2.921875 -1.203125 C 3.222656 -1.203125 3.472656 -1.300781 3.671875 -1.5 C 3.867188 -1.695312 3.96875 -1.945312 3.96875 -2.25 C 3.96875 -2.5625 3.863281 -2.816406 3.65625 -3.015625 C 3.457031 -3.222656 3.210938 -3.328125 2.921875 -3.328125 C 2.617188 -3.328125 2.363281 -3.222656 2.15625 -3.015625 Z M 2.15625 -3.015625 "/></g></g></g></svg>